<svg width="183" height="31" viewBox="0 0 183 31" fill="none" xmlns="http://www.w3.org/2000/svg">
<path fill-rule="evenodd" clip-rule="evenodd" d="M95.1708 18.7298H87.5962V10.7323H93.8212C94.1137 10.7323 94.35 10.4962 94.35 10.2054V9.14395C94.35 8.85262 94.1137 8.61182 93.8212 8.61182H87.5962V2.12191H95.0543C95.3454 2.12191 95.5836 1.88394 95.5836 1.58931V0.528353C95.5836 0.236083 95.3454 0 95.0543 0H85.7724C85.4818 0 85.2427 0.236083 85.2427 0.528353V20.3154C85.2427 20.6114 85.4818 20.848 85.7724 20.848H95.1708C95.4676 20.848 95.7011 20.6114 95.7011 20.3154V19.2596C95.7011 18.9636 95.4676 18.7298 95.1708 18.7298Z" fill="#0B0B09"/>
<path fill-rule="evenodd" clip-rule="evenodd" d="M113.473 0H112.176C111.887 0 111.648 0.236083 111.648 0.528353V16.4384L104.099 0.504272C103.957 0.17659 103.719 0 103.425 0H101.868C101.573 0 101.339 0.236083 101.339 0.528353V20.3154C101.339 20.6114 101.573 20.848 101.868 20.848H103.164C103.457 20.848 103.691 20.6114 103.691 20.3154V4.41333L111.243 20.3409C111.385 20.6681 111.619 20.848 111.913 20.848H113.473C113.763 20.848 114.001 20.6114 114.001 20.3154V0.528353C114.001 0.236083 113.763 0 113.473 0Z" fill="#0B0B09"/>
<path fill-rule="evenodd" clip-rule="evenodd" d="M130.537 0H119.814C119.525 0 119.29 0.236083 119.29 0.528353V1.58931C119.29 1.88394 119.525 2.12191 119.814 2.12191H123.988V20.3154C123.988 20.6114 124.227 20.848 124.514 20.848H125.81C126.105 20.848 126.338 20.6114 126.338 20.3154V2.12191H130.537C130.828 2.12191 131.067 1.88394 131.067 1.58931V0.528353C131.067 0.236083 130.828 0 130.537 0Z" fill="#0B0B09"/>
<path fill-rule="evenodd" clip-rule="evenodd" d="M144.87 6.49935C144.87 8.40784 144.015 9.29268 142.11 9.29268H138.292V1.9982H142.315C143.96 1.9982 144.87 2.79238 144.87 4.49926V6.49935ZM143.05 0H136.497C136.203 0 135.97 0.236083 135.97 0.528353V20.3154C135.97 20.6114 136.203 20.848 136.497 20.848H137.79C138.085 20.848 138.323 20.6114 138.323 20.3154V11.2932H142.166C142.274 11.2932 142.365 11.2753 142.471 11.2701L144.432 20.1959C144.483 20.5543 144.838 20.848 145.187 20.848H146.276C146.572 20.848 146.833 20.6114 146.833 20.2847C146.833 20.2847 146.833 20.2294 146.803 20.1959L144.75 10.8116C146.33 10.1242 147.013 8.72372 147.013 6.87945V3.88356C147.013 1.44577 145.574 0 143.05 0Z" fill="#0B0B09"/>
<path fill-rule="evenodd" clip-rule="evenodd" d="M156.702 13.731L159.726 2.29708L162.75 13.731H156.702ZM161.431 0.409367C161.373 0.17659 161.227 0 160.961 0H158.492C158.229 0 158.08 0.17659 158.025 0.409367L152.732 20.1728C152.703 20.2847 152.703 20.3409 152.703 20.3753C152.703 20.6402 152.997 20.848 153.293 20.848H154.497C154.76 20.848 154.908 20.6114 154.967 20.3409L156.141 15.9096H163.311L164.482 20.3409C164.544 20.6114 164.688 20.848 164.953 20.848H166.153C166.45 20.848 166.743 20.6402 166.743 20.3753C166.743 20.3409 166.743 20.3154 166.718 20.1728L161.431 0.409367Z" fill="#0B0B09"/>
<path fill-rule="evenodd" clip-rule="evenodd" d="M182.136 18.7298H174.558V10.7323H180.788C181.079 10.7323 181.313 10.4962 181.313 10.2054V9.14395C181.313 8.85262 181.079 8.61182 180.788 8.61182H174.558V2.12191H182.021C182.317 2.12191 182.551 1.88394 182.551 1.58931V0.528353C182.551 0.236083 182.317 0 182.021 0H172.74C172.443 0 172.212 0.236083 172.212 0.528353V20.3154C172.212 20.6114 172.443 20.848 172.74 20.848H182.136C182.432 20.848 182.667 20.6114 182.667 20.3154V19.2596C182.667 18.9636 182.432 18.7298 182.136 18.7298Z" fill="#0B0B09"/>
<mask id="mask0_901_457" style="mask-type:alpha" maskUnits="userSpaceOnUse" x="0" y="0" width="80" height="31">
<path fill-rule="evenodd" clip-rule="evenodd" d="M0 0H79.8125V30.3149H0V0Z" fill="white"/>
</mask>
<g mask="url(#mask0_901_457)">
<path fill-rule="evenodd" clip-rule="evenodd" d="M79.2508 0H78.1634C77.8111 0 77.461 0.295103 77.4035 0.651116L73.4532 18.8658L69.5076 0.651116C69.4514 0.295103 69.0962 0 68.7448 0H67.6602C67.364 0 67.0989 0.236083 67.0989 0.56046C67.0989 0.56046 67.0989 0.618064 67.1328 0.651116L71.3874 20.3154C71.4525 20.6114 71.6209 20.848 71.9195 20.848H74.9887C75.2854 20.848 75.4637 20.6114 75.5208 20.3154L79.781 0.651116C79.8126 0.618064 79.8126 0.56046 79.8126 0.56046C79.8126 0.236083 79.5452 0 79.2508 0Z" fill="#0B0B09"/>
<path fill-rule="evenodd" clip-rule="evenodd" d="M32.0596 0H-0.0283203L42.0024 30.3149L42.0048 30.3036L51.9608 0H32.0596Z" fill="#FACB21"/>
</g>
<path fill-rule="evenodd" clip-rule="evenodd" d="M32.0596 0L42.0047 30.3036L51.9607 0H32.0596Z" fill="#F1AE2A"/>
</svg>
